<svg width="28" height="36" viewBox="0 0 28 36" fill="none" xmlns="http://www.w3.org/2000/svg">
<path d="M11.8125 0.5C10.6044 0.5 9.625 1.47938 9.625 2.6875C9.625 3.89562 10.6044 4.875 11.8125 4.875H16.1875C17.3956 4.875 18.375 3.89562 18.375 2.6875C18.375 1.47938 17.3956 0.5 16.1875 0.5H11.8125Z" fill="#EEEFEF"/>
<path fill-rule="evenodd" clip-rule="evenodd" d="M0.875 7.0625C0.875 4.64625 2.83375 2.6875 5.25 2.6875C5.25 6.31187 8.18813 9.25 11.8125 9.25H16.1875C19.8119 9.25 22.75 6.31187 22.75 2.6875C25.1662 2.6875 27.125 4.64625 27.125 7.0625V31.125C27.125 33.5412 25.1662 35.5 22.75 35.5H5.25C2.83375 35.5 0.875 33.5412 0.875 31.125V7.0625ZM7.4375 15.8125C6.22938 15.8125 5.25 16.7919 5.25 18C5.25 19.2081 6.22938 20.1875 7.4375 20.1875H7.45938C8.6675 20.1875 9.64688 19.2081 9.64688 18C9.64688 16.7919 8.6675 15.8125 7.45938 15.8125H7.4375ZM14 15.8125C12.7919 15.8125 11.8125 16.7919 11.8125 18C11.8125 19.2081 12.7919 20.1875 14 20.1875H20.5625C21.7706 20.1875 22.75 19.2081 22.75 18C22.75 16.7919 21.7706 15.8125 20.5625 15.8125H14ZM7.4375 24.5625C6.22938 24.5625 5.25 25.5419 5.25 26.75C5.25 27.9581 6.22938 28.9375 7.4375 28.9375H7.45938C8.6675 28.9375 9.64688 27.9581 9.64688 26.75C9.64688 25.5419 8.6675 24.5625 7.45938 24.5625H7.4375ZM14 24.5625C12.7919 24.5625 11.8125 25.5419 11.8125 26.75C11.8125 27.9581 12.7919 28.9375 14 28.9375H20.5625C21.7706 28.9375 22.75 27.9581 22.75 26.75C22.75 25.5419 21.7706 24.5625 20.5625 24.5625H14Z" fill="#EEEFEF"/>
</svg>
